<svg id="Layer_1" data-name="Layer 1" xmlns="http://www.w3.org/2000/svg" viewBox="0 0 302.48 284.68"><defs><style>.cls-1{fill:none;stroke:#000;stroke-miterlimit:10;stroke-width:16px;}</style></defs><rect class="cls-1" x="44.19" y="35.55" width="213.43" height="213.43"/><path d="M95,96.32v37.1H79V61.61l44.81,37.91V62.42h16v71.8Z"/><path d="M173,62.42h44v15.8H189v12h22v15.4H189v12h28v15.8H173Z"/><path d="M80.28,193.13V150.92h16v42.41c0,8.6,5.3,14,13.1,14s13.1-5.4,13.1-14V150.92h16v42.21c0,17.8-12.1,29.6-29.1,29.6S80.28,210.93,80.28,193.13Z"/><path d="M173,151.32h44v15.8H189v12h22v15.4H189v12h28v15.8H173Z"/></svg>